<svg xmlns="http://www.w3.org/2000/svg" xmlns:svg="http://www.w3.org/2000/svg" id="svg6" width="24" height="24" fill="none" version="1.1" viewBox="0 0 24 24"><g id="g829" transform="translate(0,-0.08825)"><path id="path2" fill="#000" fill-rule="evenodd" d="m 5.67647,20.1765 h 7.64703 3.8236 c 2.0304,0 3.6764,-1.646 3.6764,-3.6765 0,-1.8302 -1.3374,-3.3481 -3.0882,-3.6297 v -0.9291 c 0,-2.43657 -1.9752,-4.41179 -4.4118,-4.41179 -2.0063,0 -3.69981,1.33925 -4.23532,3.17259 -0.42441,-0.4161 -1.00575,-0.6726 -1.647,-0.6726 -1.2995,0 -2.35294,1.0535 -2.35294,2.353 v 0.4879 C 3.3374,13.1519 2,14.6698 2,16.5 c 0,2.0305 1.64601,3.6765 3.67647,3.6765 z M 11.2647,11.5 c 0,-0.1624 0.1317,-0.2941 0.2941,-0.2941 h 0.8824 c 0.1624,0 0.2941,0.1317 0.2941,0.2941 v 1.7647 h 0.8426 c 0.2494,0 0.3856,0.2908 0.226,0.4824 l -1.578,1.8935 c -0.1175,0.1411 -0.3343,0.1411 -0.4519,0 l -1.5779,-1.8935 c -0.1596,-0.1916 -0.0234,-0.4824 0.226,-0.4824 h 0.8426 z m -2.20588,3.8235 h 1.87668 l 0.4996,0.5996 c 0.294,0.3527 0.8358,0.3527 1.1298,0 l 0.4996,-0.5996 h 1.8767 c 0.3248,0 0.5882,0.2634 0.5882,0.5883 v 1.1764 c 0,0.3249 -0.2634,0.5883 -0.5882,0.5883 H 9.05882 c -0.32487,0 -0.58823,-0.2634 -0.58823,-0.5883 v -1.1764 c 0,-0.3249 0.26336,-0.5883 0.58823,-0.5883 z m 5.88238,1.4706 c 0,0.1625 -0.1317,0.2941 -0.2941,0.2941 -0.1625,0 -0.2942,-0.1316 -0.2942,-0.2941 0,-0.1624 0.1317,-0.2941 0.2942,-0.2941 0.1624,0 0.2941,0.1317 0.2941,0.2941 z m -1.3236,0.2941 c 0.1625,0 0.2942,-0.1316 0.2942,-0.2941 0,-0.1624 -0.1317,-0.2941 -0.2942,-0.2941 -0.1624,0 -0.2941,0.1317 -0.2941,0.2941 0,0.1625 0.1317,0.2941 0.2941,0.2941 z" clip-rule="evenodd"/><path id="path4" fill="#000" fill-rule="evenodd" d="m 20.2353,4 h -1.1765 v 1.7647 h -1.7647 v 1.17648 h 1.7647 v 1.7647 h 1.1765 V 6.94117 H 22 V 5.7647 h -1.7647 z" clip-rule="evenodd"/></g></svg>