<svg xmlns="http://www.w3.org/2000/svg" xmlns:svg="http://www.w3.org/2000/svg" id="svg8" width="24" height="24" fill="none" version="1.1" viewBox="0 0 24 24"><path id="path4" d="m 12.000003,2.716854 c -0.432459,0 -0.865058,0.2130341 -1.111263,0.6419334 L 3.1719647,16.80254 c -0.4903436,0.854144 0.1263648,1.918042 1.1112623,1.918042 H 4.711829 L 12.000003,5.9691871 19.288177,18.720582 h 0.428601 c 0.984918,0 1.601587,-1.063898 1.111263,-1.918042 L 13.111265,3.3587874 C 12.865061,2.9298881 12.432462,2.716854 12.000003,2.716854 Z m 0,8.255922 -4.4275949,7.747806 h 1.0123542 l 3.4152407,-1.332351 3.41524,1.332351 h 1.010415 z" style="fill:#000;stroke-width:.99296"/><path id="path6" fill="#000" d="M 4.953281,20.802652 12.000102,8.4707403 19.046943,20.802652 18.56645,21.283146 12.000102,18.720613 5.4337447,21.283146 Z" style="fill:#000;stroke-width:.99296"/></svg>