<svg xmlns="http://www.w3.org/2000/svg" xmlns:svg="http://www.w3.org/2000/svg" id="svg6" width="24" height="24" preserveAspectRatio="xMidYMid" version="1.1" viewBox="0 0 1.229 1.229"><path id="path4" fill="#fff" d="m 0.55364398,0.46677379 0.17065593,0.16699784 c 0.0247516,0.0242211 0.0651359,0.0242211 0.0894533,0 0.0243173,-0.0242211 0.0247515,-0.0637396 0,-0.0875358 L 0.64309722,0.37923802 C 0.5206418,0.2606823 0.32349728,0.25855764 0.19843645,0.37328899 l -0.006514,0.005949 c -0.12071834,0.12535461 -0.11898138,0.31869818 0.00304,0.43767883 l 0.1706564,0.16699806 c 0.0247516,0.0242214 0.0651358,0.0242214 0.0894532,0 0.0243174,-0.0242214 0.0247516,-0.0637395 0,-0.0875358 L 0.28528425,0.73023095 c -0.0738206,-0.0722383 -0.0751234,-0.19121891 -0.001737,-0.26473196 0.0733864,-0.073513 0.19540755,-0.0713884 0.27009668,0.0017 z M 0.77380315,0.24453493 c -0.0247516,0.0242211 -0.0247516,0.0637396 0,0.0875358 l 0.17065592,0.16699785 c 0.0738207,0.0722382 0.0751234,0.19121891 0.001303,0.26473195 -0.0738206,0.073513 -0.19540753,0.0713884 -0.27009663,-0.0017 L 0.50500919,0.59510292 c -0.0247516,-0.0242211 -0.0651358,-0.0242211 -0.0894532,0 -0.0243174,0.0242211 -0.0247516,0.0637396 0,0.0875358 l 0.17065596,0.16699784 c 0.12158692,0.11898067 0.3191657,0.12153025 0.44422655,0.005949 l 0.00652,-0.005949 C 1.1576704,0.72428192 1.1559335,0.53093835 1.0339124,0.4119577 L 0.86282217,0.24495986 c -0.0247515,-0.0242211 -0.0651361,-0.0242211 -0.0894532,0 z" style="fill:#000;fill-opacity:1;stroke-width:.42956"/></svg>