<svg xmlns="http://www.w3.org/2000/svg" xmlns:svg="http://www.w3.org/2000/svg" id="svg8" width="24" height="24" fill="none" version="1.1" viewBox="0 0 24 24"><path id="path2" fill="#000" d="M 5,12 C 5,12.8284 4.32843,13.5 3.5,13.5 2.67157,13.5 2,12.8284 2,12 2,11.1716 2.67157,10.5 3.5,10.5 4.32843,10.5 5,11.1716 5,12 Z"/><path id="path4" fill="#000" d="m 22,12 c 0,0.8284 -0.6716,1.5 -1.5,1.5 -0.8284,0 -1.5,-0.6716 -1.5,-1.5 0,-0.8284 0.6716,-1.5 1.5,-1.5 0.8284,0 1.5,0.6716 1.5,1.5 z"/><path id="path6" stroke="#000" stroke-linecap="round" stroke-linejoin="round" stroke-width="2" d="m 8,12 h 8 m 0,0 -4,-4 m 4,4 -4,4"/></svg>