<svg xmlns="http://www.w3.org/2000/svg" xmlns:svg="http://www.w3.org/2000/svg" id="svg14" width="24" height="24" fill="none" version="1.1" viewBox="0 0 24 24"><g id="g843" transform="matrix(0.9090906,0,0,0.9090906,1.269056,1.0909105)"><path id="path2" fill="#000" d="m 13.6201,10.0208 2.313,0.8491 c 0.3738,0.1319 0.8288,-0.0445 0.8288,-0.3211 V 4.68913 c 0,-0.13389 -0.1124,-0.25382 -0.2932,-0.31728 L 14.1557,3.52279 C 13.7819,3.3908 13.3269,3.56658 13.3269,3.84008 v 5.85963 c 0,0.13389 0.113,0.257 0.2932,0.32109 z"/><path id="path4" fill="#000" d="m 13.6201,20.5394 2.313,0.8491 c 0.3738,0.132 0.8288,-0.0438 0.8288,-0.3205 v -5.8596 c 0,-0.1339 -0.1124,-0.257 -0.2932,-0.3211 l -2.313,-0.849 c -0.3738,-0.132 -0.8288,0.0444 -0.8288,0.3211 v 5.8583 c 0,0.1339 0.113,0.257 0.2932,0.3205"/><path id="path6" fill="#000" d="M 9.33681,8.06124 11.6498,8.9103 c 0.3738,0.13199 0.825,-0.04442 0.825,-0.32109 v -6.3749 c 0,-0.1339 -0.1124,-0.257 -0.2932,-0.3211 L 9.87239,1.04479 C 9.49799,0.912803 9.04364,1.08858 9.04364,1.36208 v 6.37807 c 0,0.13389 0.11232,0.25764 0.29317,0.32109 z"/><path id="path8" fill="#000" d="m 9.33681,22.1062 2.31299,0.8491 c 0.3738,0.1319 0.825,-0.0438 0.825,-0.3211 v -6.3584 c 0,-0.1339 -0.1124,-0.257 -0.2932,-0.3211 L 9.87239,15.1062 C 9.49799,14.9743 9.04364,15.15 9.04364,15.4267 v 6.3584 c 0,0.1339 0.11232,0.257 0.29317,0.3211 z"/><path id="path10" fill="#000" d="m 8.19458,2.45354 c 0,-0.13389 -0.11296,-0.25383 -0.29381,-0.32109 L 5.58839,1.28339 C 5.21463,1.1514 4.75964,1.32781 4.75964,1.60448 V 21.5465 c 0,0.1339 0.11232,0.2576 0.29318,0.3211 l 2.31301,0.8497 c 0.37376,0.1313 0.82875,-0.0444 0.82875,-0.3211 z"/><path id="path12" fill="#000" d="M 20.7508,7.74777 18.4378,6.89871 C 18.064,6.76672 17.6129,6.94313 17.6129,7.2198 v 9.6239 c 0,0.1339 0.1123,0.257 0.2931,0.3205 l 2.313,0.849 c 0.3738,0.132 0.8288,-0.0438 0.8288,-0.3204 V 8.06886 c 0,-0.1339 -0.113,-0.257 -0.2938,-0.32109"/></g></svg>