<svg xmlns="http://www.w3.org/2000/svg" xmlns:svg="http://www.w3.org/2000/svg" id="svg6" width="24" height="24" fill="none" version="1.1" viewBox="0 0 24 24"><path id="path4" d="M 11.585938 4 L 9.5859375 6 L 4 6 C 2.9072706 6 2 6.9072706 2 8 L 2 14 L 2 18 C 2 19.09273 2.9072947 20 4 20 L 20 20 C 21.092706 20 22 19.092706 22 18 L 22 6 C 22 4.9072947 21.09273 4 20 4 L 18 4 L 13 4 L 11.585938 4 z M 13 6 L 20 6 L 20 18 L 4 18 L 4 15 L 10 15 C 11.645005 15 13 13.645005 13 12 L 13 6 z M 11 7.4140625 L 11 12 C 11 12.564193 10.564193 13 10 13 L 5.4140625 13 L 10.707031 7.7070312 L 11 7.4140625 z M 4 8 L 7.5859375 8 L 4 11.585938 L 4 8 z" style="color:#000;fill:#000;-inkscape-stroke:none"/></svg>