<svg xmlns="http://www.w3.org/2000/svg" xmlns:svg="http://www.w3.org/2000/svg" id="svg6" width="24" height="24" fill="none" version="1.1" viewBox="0 0 24 24"><path id="path4" fill="#C4C4C4" fill-opacity=".77" fill-rule="evenodd" d="M 12.000008,2 C 9.7199978,2 7.4399078,2.869806 5.7002878,4.60942 c -3.479134,3.47923 -3.479134,9.12018 0,12.59938 0.96015,0.9601 1.80011,1.4736 2.69837,2.0227 l 2.3e-4,10e-5 1.9e-4,10e-5 c 1.03262,0.6314 2.1424802,1.3099 3.6009302,2.7683 1.45833,-1.4584 2.56833,-2.1369 3.60093,-2.7682 l 2e-4,-10e-5 c 0.8984,-0.5493 1.7384,-1.0628 2.6986,-2.0229 3.4791,-3.4793 3.4791,-9.12015 0,-12.59938 C 16.560138,2.869806 14.280038,2 12.000008,2 Z M 8.5454878,6.18182 c 0,-0.40166 0.32561,-0.72727 0.72727,-0.72727 h 5.4545802 c 0.4016,0 0.7272,0.32561 0.7272,0.72727 v 9.45458 c 0,0.4016 -0.3256,0.7272 -0.7272,0.7272 H 9.2727578 c -0.40166,0 -0.72727,-0.3256 -0.72727,-0.7272 z m 0.90909,1.09091 H 14.545438 V 14.5455 H 9.4545778 Z" clip-rule="evenodd" style="opacity:1;fill:#000;fill-opacity:1"/></svg>