<svg xmlns="http://www.w3.org/2000/svg" xmlns:svg="http://www.w3.org/2000/svg" id="svg4" width="24" height="24" fill="none" version="1.1" viewBox="0 0 24 24"><path style="fill:none;stroke:#000;stroke-width:2;stroke-linecap:butt;stroke-linejoin:miter;stroke-miterlimit:4;stroke-dasharray:none;stroke-opacity:1" id="path991" d="m 4,6 v 12 a 2,2 45 0 0 2,2 h 12 a 2,2 135 0 0 2,-2 V 6 A 2,2 45 0 0 18,4 H 6 A 2,2 135 0 0 4,6 Z"/><path style="fill:#000;fill-opacity:1;stroke:none;stroke-width:1px;stroke-linecap:butt;stroke-linejoin:miter;stroke-opacity:1" id="path5460" d="m 6.3253957,16.620372 2.3492086,-2.740744 a 0.42857143,0.42857143 0 0 1 0.6507914,0 l 2.3492083,2.740744 A 0.22996746,0.22996746 114.69935 0 1 11.5,17 h -5 A 0.22996746,0.22996746 65.300647 0 1 6.3253957,16.620372 Z"/><path style="fill:#000;fill-opacity:1;stroke:none;stroke-width:1px;stroke-linecap:butt;stroke-linejoin:miter;stroke-opacity:1" id="path5890" d="m 17.5,17 h -7 a 0.24031242,0.24031242 64.329904 0 1 -0.187652,-0.390434 l 3.375304,-4.219132 a 0.4,0.4 0 0 1 0.624696,0 l 3.375304,4.219132 A 0.24031242,0.24031242 115.6701 0 1 17.5,17 Z"/></svg>