<svg xmlns="http://www.w3.org/2000/svg" xmlns:svg="http://www.w3.org/2000/svg" id="Layer_1" data-name="Layer 1" version="1.1" viewBox="0 0 24 24"><g id="g10" transform="matrix(1.0014564,0,0,1.0014564,-0.03204087,-0.01747692)"><path id="path2" d="m 15.04635,16.85052 a 1.02154,1.02154 0 0 0 -0.63278,0.21647 6.34889,6.34889 0 0 1 -3.93062,1.3474 6.41434,6.41434 0 0 1 0,-12.82868 6.34766,6.34766 0 0 1 3.93062,1.3478 1.03457,1.03457 0 0 0 1.26939,-1.634 8.39967,8.39967 0 0 0 -5.2,-1.78246 8.483,8.483 0 0 0 0,16.9659 8.39944,8.39944 0 0 0 5.2,-1.78246 1.03342,1.03342 0 0 0 -0.63661,-1.85 z"/><path id="path4" d="m 10.52013,8.65046 a 3.30339,3.30339 0 0 1 1.96013,0.64266 v -5.1e-4 a 1.02566,1.02566 0 0 0 1.20912,-1.65708 5.382,5.382 0 1 0 2.2166,4.34895 1.02853,1.02853 0 0 0 -1.02591,-1.02591 H 11.475 a 1.02586,1.02586 0 0 0 0,2.05172 h 2.21741 A 3.334,3.334 0 1 1 10.52013,8.65046 Z"/><path id="path6" d="m 17.57617,8.00629 h -4e-4 a 0.93932,0.93932 0 0 0 -0.32743,-0.059 0.94927,0.94927 0 0 0 -0.39888,0.08859 h -4e-4 a 0.95231,0.95231 0 0 0 -0.46287,1.261 6.40849,6.40849 0 0 1 0,5.37547 0.95228,0.95228 0 0 0 0.46287,1.261 h 4e-4 a 0.94851,0.94851 0 0 0 1.26054,-0.46318 8.30783,8.30783 0 0 0 0,-6.97138 0.94472,0.94472 0 0 0 -0.53383,-0.4925 z"/><path id="path8" d="m 20.75479,6.8028 a 0.94994044,0.94994044 0 0 0 -1.69135,0.86538 9.50136,9.50136 0 0 1 0,8.6326 0.94972,0.94972 0 1 0 1.69085,0.86538 v -5.1e-4 a 11.40074,11.40074 0 0 0 5e-4,-10.36285 z"/></g></svg>