<svg xmlns="http://www.w3.org/2000/svg" xmlns:svg="http://www.w3.org/2000/svg" id="svg4" width="24" height="24" fill="none" version="1.1" viewBox="0 0 24 24"><path style="opacity:1;fill:none;stroke:#000;stroke-width:2;stroke-linecap:butt;stroke-linejoin:miter;stroke-miterlimit:4;stroke-dasharray:none;stroke-opacity:1" id="path884" d="m 3,5 v 14 a 1,1 45 0 0 1,1 h 16 a 1,1 135 0 0 1,-1 V 5 A 1,1 45 0 0 20,4 H 4 A 1,1 135 0 0 3,5 Z"/><rect style="opacity:1;fill:#000;fill-opacity:1;stroke:none;stroke-width:2;stroke-miterlimit:4;stroke-dasharray:none" id="rect1729" width="4" height="2" x="14" y="18"/><path id="path1857" d="m 12,12 c 0.82875,0 1.5,-0.67125 1.5,-1.5 0,-0.8287501 -0.67125,-1.5000001 -1.5,-1.5000001 -0.82875,0 -1.5,0.67125 -1.5,1.5000001 0,0.82875 0.67125,1.5 1.5,1.5 z m 0,0.75 c -1.00125,0 -3,0.5025 -3,1.5 V 15 h 6 v -0.75 c 0,-0.9975 -1.99875,-1.5 -3,-1.5 z" style="fill:#000;stroke-width:.375"/><path id="path2058" d="M 15.75 10.5 C 15.128438 10.5 14.625 11.003438 14.625 11.625 C 14.625 12.246563 15.128438 12.75 15.75 12.75 C 16.371562 12.75 16.875 12.246563 16.875 11.625 C 16.875 11.003438 16.371562 10.5 15.75 10.5 z M 15.75 13.3125 C 15.579437 13.3125 15.36986 13.332274 15.148438 13.371094 C 15.350818 13.606445 15.5 13.907929 15.5 14.25 L 15.5 15 L 18 15 L 18 14.4375 C 18 13.689375 16.500937 13.3125 15.75 13.3125 z M 14.019531 13.748047 C 13.713223 13.924343 13.5 14.155113 13.5 14.4375 L 13.5 14.5 L 14.5 14.5 L 14.5 14.25 C 14.5 14.167605 14.46786 14.088253 14.332031 13.962891 C 14.255774 13.892509 14.146922 13.819095 14.019531 13.748047 z" style="fill:#000;stroke-width:.28125"/><path id="path2142" d="M 8.25 10.5 C 7.6284375 10.5 7.125 11.003438 7.125 11.625 C 7.125 12.246563 7.6284375 12.75 8.25 12.75 C 8.8715625 12.75 9.375 12.246563 9.375 11.625 C 9.375 11.003438 8.8715625 10.5 8.25 10.5 z M 8.25 13.3125 C 7.4990625 13.3125 6 13.689375 6 14.4375 L 6 15 L 8.5 15 L 8.5 14.25 C 8.5 13.907929 8.6491818 13.606445 8.8515625 13.371094 C 8.6301403 13.332274 8.4205632 13.3125 8.25 13.3125 z M 9.9804688 13.748047 C 9.8530774 13.819095 9.7442256 13.892509 9.6679688 13.962891 C 9.5321399 14.088253 9.5 14.1676 9.5 14.25 L 9.5 14.5 L 10.5 14.5 L 10.5 14.4375 C 10.5 14.155113 10.286777 13.924343 9.9804688 13.748047 z" style="fill:#000;stroke-width:.28125"/></svg>