<svg xmlns="http://www.w3.org/2000/svg" xmlns:svg="http://www.w3.org/2000/svg" id="svg10" width="24" height="24" fill="none" version="1.1" viewBox="0 0 24 24"><g id="g826" transform="translate(3.02e-4,-1)"><path id="path4" d="M 6.6640625,17.634766 V 22 h 9.6718755 v -4.365234 z m 0,-3.275391 -4.3652344,4.365234 v 1.982422 C 2.2988281,21.421484 2.8773811,22 3.5917969,22 h 3.0722656 v -4.365234 z" style="fill:#000;stroke-width:1.86688"/><path id="path912" d="m 15.779297,5.2441406 -3.072266,3.0722656 4.628907,4.6289058 V 17.634766 22 h 3.072265 c 0.714453,0 1.292969,-0.578516 1.292969,-1.292969 v -9.005859 c 0,-0.342945 -0.136399,-0.671556 -0.378906,-0.914063 z" style="fill:#000;stroke-width:1.86688"/><path id="path8" fill="#e26f6f" d="M 2.6771063,10.787175 11.085418,2.3788823 c 0.505176,-0.5051764 1.324174,-0.5051764 1.829351,0 l 2.157547,2.1575661 -3.072129,3.0722606 -5.336126,5.336014 -4.365837,4.365874 v -5.608653 c 0,-0.343132 0.1362819,-0.672262 0.3788823,-0.914769 z" style="fill:#000;stroke-width:1.86688"/></g></svg>