<svg xmlns="http://www.w3.org/2000/svg" xmlns:svg="http://www.w3.org/2000/svg" id="svg6" width="24" height="24" fill="none" version="1.1" viewBox="0 0 24 24"><path id="path4" fill="#000" fill-rule="evenodd" d="m 15.972139,16.415124 c 2.438355,-2.438474 2.438355,-6.391856 0,-8.8302481 -2.438474,-2.4383917 -6.3918575,-2.4383917 -8.8302492,0 -2.4383917,2.4384031 -2.4383917,6.3917741 0,8.8302481 2.4383917,2.438356 6.3917752,2.438356 8.8302492,0 z m 2.342708,2.342709 c 3.732241,-3.73224 3.732241,-9.7834259 0,-13.5156664 -3.732239,-3.7322407 -9.7834255,-3.7322407 -13.5156665,0 -3.7322407,3.7322405 -3.7322407,9.7834264 0,13.5156664 3.732241,3.732241 9.7834275,3.732241 13.5156665,0 z M 12.097663,15.7843 c -0.298589,0.298588 -0.782707,0.298588 -1.081296,0 l -0.08929,-0.08929 c -3.53e-4,-2.35e-4 -5.88e-4,-4.7e-4 -8.24e-4,-7.06e-4 L 9.4845795,14.252655 c -0.0017,-0.0019 -0.0035,-0.0035 -0.0053,-0.0053 L 7.2320194,11.999941 c -0.2985887,-0.298589 -0.2985887,-0.782589 0,-1.081178 L 8.8539155,9.2968551 c 0.29853,-0.298589 0.78266,-0.298589 1.081261,0 l 1.6217795,1.6219079 7.478716,-7.4786813 c 0.348353,-0.3483299 0.91306,-0.3483299 1.261413,0 l 1.44165,1.4416727 c 0.348354,0.3483416 0.348354,0.9131072 0,1.2614489 l -8.01754,8.0175647 c -5.89e-4,5.88e-4 -0.0011,0.0012 -0.0016,0.0016 z" clip-rule="evenodd" style="stroke-width:1.17647"/></svg>