<svg xmlns="http://www.w3.org/2000/svg" xmlns:svg="http://www.w3.org/2000/svg" id="svg15" width="24" height="24" fill="none" version="1.1" viewBox="0 0 24 24"><path id="path4" stroke="#000" stroke-width="3.153" d="M 7.0678754,13.418947 14.473622,6.0132508 c 1.363314,-1.3633634 3.573798,-1.3633634 4.937111,0 1.363414,1.3633533 1.363414,3.5737978 0,4.9371512 l -7.405666,7.405757 z"/><path id="path6" fill="#000" fill-rule="evenodd" d="M 12.004866,16.126479 5.7139887,9.8356025 c -0.7476515,-0.7476414 -0.7476515,-1.9598204 0,-2.7074719 0.7476415,-0.7476415 1.9598204,-0.7476415 2.707472,0 L 10.722079,9.4287592 12.857866,7.1051876 10.65114,4.8984513 c -1.9790653,-1.9790691 -5.1877754,-1.9790681 -7.1668406,0 -1.9790652,1.9790652 -1.9790662,5.1877647 0,7.1668407 l 6.2908972,6.290867 2.2296694,2.229679 2.229679,-2.229679 2.707532,-2.707432 2.22968,-2.229679 -1.110971,-1.110971 -2.601209,3.648868 c -0.07195,0.100997 -0.212144,0.124814 -0.313443,0.05316 l -1.772126,-1.252668 z" clip-rule="evenodd" style="stroke-width:1.00495"/><defs id="defs13"><clipPath id="clip0_17_87"><rect id="rect10" width="24" height="24" fill="#fff"/></clipPath></defs></svg>