<svg xmlns="http://www.w3.org/2000/svg" xmlns:svg="http://www.w3.org/2000/svg" id="svg12" width="24" height="24" fill="none" version="1.1" viewBox="0 0 24 24"><path id="path4" fill="#000" d="m 8.10425,14.6551 c 3.37125,0 6.10425,-2.733 6.10425,-6.10425 0,-3.37128 -2.733,-6.10425 -6.10425,-6.10425 C 4.73297,2.4466 2,5.17957 2,8.55085 2,11.9221 4.73297,14.6551 8.10425,14.6551 Z"/><path id="path6" fill="#000" d="m 22,9.14654 c 0,0.68531 -0.5557,1.24071 -1.2407,1.24071 -0.6851,0 -1.2407,-0.5554 -1.2407,-1.24071 0,-0.68528 0.5556,-1.24071 1.2407,-1.24071 0.685,0 1.2407,0.55543 1.2407,1.24071 z"/><path id="path8" fill="#000" d="m 19.767,12.1739 c 0,1.3703 -1.1109,2.4813 -2.4814,2.4813 -1.3706,0 -2.4814,-1.111 -2.4814,-2.4813 0,-1.3705 1.1108,-2.48145 2.4814,-2.48145 1.3706,0 2.4814,1.11105 2.4814,2.48145 z"/><path id="path10" fill="#000" d="m 20.263,18.5758 c 0,1.6446 -1.333,2.9776 -2.9777,2.9776 -1.6447,0 -2.9777,-1.333 -2.9777,-2.9776 0,-1.6444 1.333,-2.9776 2.9777,-2.9776 1.6447,0 2.9777,1.3332 2.9777,2.9776 z"/></svg>