<svg xmlns="http://www.w3.org/2000/svg" xmlns:svg="http://www.w3.org/2000/svg" id="svg10" width="24" height="24" fill="none" version="1.1" viewBox="0 0 24 24"><rect id="rect2" width="16.225" height="5.07" x="3.887" y="3" fill="#000" rx="2.535" style="stroke-width:.899997"/><path id="rect4" d="M 6.421875 10.591797 C 5.5540772 10.591797 4.8867188 11.259155 4.8867188 12.126953 C 4.8867187 12.994751 5.5540772 13.662109 6.421875 13.662109 L 8.9589844 13.662109 L 8.9589844 12.126953 C 8.9589844 11.547428 8.7625731 11.017676 8.4375 10.591797 L 6.421875 10.591797 z M 3.8867188 14.582031 L 3.8867188 18.464844 C 3.8867188 19.869345 5.0173735 21 6.421875 21 C 7.8263765 21 8.9589844 19.869345 8.9589844 18.464844 L 8.9589844 15.662109 L 6.421875 15.662109 C 5.431053 15.662109 4.5308245 15.246779 3.8867188 14.582031 z" style="fill:#000;stroke-width:.899997"/><rect id="rect6" width="5.07" height="11.408" x="15.042" y="9.592" fill="#000" rx="2.535" style="stroke-width:.899997"/><rect id="rect8" width="5.07" height="9.634" x="9.592" y="-13.521" fill="#000" rx="2.535" transform="rotate(90)" style="stroke-width:.899997"/></svg>