<svg xmlns="http://www.w3.org/2000/svg" xmlns:svg="http://www.w3.org/2000/svg" id="svg6" width="24" height="24" fill="none" version="1.1" viewBox="0 0 24 24"><path id="path4" fill="#EA4335" d="M 16.046212,7.4583 C 15.004641,6.4666427 13.687927,5.9583146 12.212941,5.9583146 c -2.608314,0 -4.816643,1.7583284 -5.6083,4.1333004 -0.2000007,0.600002 -0.3173154,1.241686 -0.3173154,1.908342 0,0.666676 0.1083394,1.308328 0.3166694,1.908328 0.791654,2.375 3.000629,4.13343 5.608943,4.13343 1.349857,0 2.491414,-0.366577 3.391414,-0.966432 1.050003,-0.708283 1.758289,-1.750426 2.000003,-2.983769 H 12.21267 V 10.3332 h 9.416542 c 0.1,0.608332 0.158433,1.233328 0.158433,1.891657 0,3.041714 -1.083286,5.608286 -2.966714,7.35 C 17.17093,21.099857 14.912931,22 12.212945,22 8.30463,22 4.9296591,19.75 3.2880013,16.483429 2.6046692,15.133428 2.212355,13.616615 2.212355,11.999957 c 0,-1.616657 0.3916574,-3.133314 1.0749856,-4.4833 C 4.9289975,4.2500147 8.304626,2 12.212941,2 c 2.699986,0 4.958271,0.9916576 6.683272,2.6083138 z" style="fill:#000;stroke-width:1.42857"/></svg>