<svg xmlns="http://www.w3.org/2000/svg" xmlns:svg="http://www.w3.org/2000/svg" id="svg12" width="24" height="24" fill="none" version="1.1" viewBox="0 0 24 24"><path id="path4" fill="#000" d="M 7.4999549,7.0886238 C 9.9839799,7.0886238 12,9.1046439 12,11.588696 V 12.00009 H 3.41134 c -0.2262893,0 -0.4114301,-0.185131 -0.4114301,-0.411394 0,-2.4840521 2.0160202,-4.5000722 4.500045,-4.5000722 z" style="fill:none;stroke:#000;stroke-width:1.99982;stroke-miterlimit:4;stroke-dasharray:none;stroke-opacity:1"/><path id="path6" fill="#000" d="M 16.911439,7.4999549 C 16.911439,9.9839799 14.895418,12 12.411393,12 H 12 V 3.41134 c 0,-0.2262893 0.185131,-0.4114301 0.411393,-0.4114301 2.484025,0 4.500046,2.0160202 4.500046,4.500045 z" style="fill:none;stroke:#000;stroke-width:1.99982;stroke-miterlimit:4;stroke-dasharray:none;stroke-opacity:1"/><path id="path8" fill="#000" d="M 16.500045,16.911439 C 14.01602,16.911439 12,14.895418 12,12.411393 V 12 h 8.588697 c 0.226261,0 0.411393,0.185131 0.411393,0.411393 0,2.484025 -2.016021,4.500046 -4.500045,4.500046 z" style="fill:none;stroke:#000;stroke-width:1.99982;stroke-miterlimit:4;stroke-dasharray:none;stroke-opacity:1"/><path id="path10" fill="#000" d="M 7.0886238,16.500045 C 7.0886238,14.01602 9.1046439,12 11.588696,12 h 0.411394 v 8.588697 c 0,0.226261 -0.185131,0.411393 -0.411394,0.411393 -2.4840521,0 -4.5000722,-2.016021 -4.5000722,-4.500045 z" style="fill:none;stroke:#000;stroke-width:1.99982;stroke-miterlimit:4;stroke-dasharray:none;stroke-opacity:1"/></svg>