<svg xmlns="http://www.w3.org/2000/svg" xmlns:svg="http://www.w3.org/2000/svg" id="svg8" width="24" height="24" fill="none" version="1.1" viewBox="0 0 24 24"><rect id="rect4" width="10" height="2" x="11.219" y="11" fill="#000" rx="1"/><path id="path6" fill="#000" fill-rule="evenodd" d="m 8.8210291,6.6457332 c 1.2459599,-0.79071 2.7287199,-1.12214 4.1927199,-0.93719 1.464,0.18495 2.8178,0.8747 3.8279,1.95043 l 2.667,-2.50444 c -1.593,-1.69634 -3.7277,-2.78402 -6.0364,-3.07568 -2.3087,-0.29165 -4.6467799,0.23098 -6.6115699,1.47787 -1.96478,1.24689 -3.4332,3.13997 -4.15229,5.35311 -0.7191,2.2131498 -0.64384,4.6077498 0.2128,6.7714498 0.85664,2.1636 2.44103,3.9607 4.48023,5.0818 2.0392,1.1211 4.4055299,1.4958 6.6913299,1.0598 2.2858,-0.436 4.348,-1.6556 5.8313,-3.4486 0.8464,-1.0231 1.474,-2.1963 1.857,-3.4474 h -3.9364 c -0.2052,0.3943 -0.4525,0.7684 -0.7395,1.1153 -0.9406,1.1371 -2.2484,1.9105 -3.6979,2.187 -1.4496,0.2765 -2.9502,0.0388 -4.2433199,-0.6721 -1.29315,-0.7109 -2.29788,-1.8506 -2.84112,-3.2226 -0.54324,-1.3721 -0.59096,-2.8906 -0.13495,-4.2941 0.45601,-1.4034598 1.38721,-2.6039398 2.63317,-3.3946498 z m 4.1295199,-2.81653 c 0,0.40411 -0.3276,0.73171 -0.7317,0.73171 -0.4041,0 -0.7317,-0.3276 -0.7317,-0.73171 0,-0.40411 0.3276,-0.7317 0.7317,-0.7317 0.4041,0 0.7317,0.32759 0.7317,0.7317 z m -0.7317,17.0731798 c 0.4041,0 0.7317,-0.3276 0.7317,-0.7317 0,-0.4041 -0.3276,-0.7317 -0.7317,-0.7317 -0.4041,0 -0.7317,0.3276 -0.7317,0.7317 0,0.4041 0.3276,0.7317 0.7317,0.7317 z M 6.9586891,5.7049532 c 0.28575,0.28575 0.28575,0.74904 0,1.03479 -0.28575,0.28575 -0.74904,0.28575 -1.03479,0 -0.28575,-0.28575 -0.28575,-0.74904 0,-1.03479 0.28575,-0.28575 0.74904,-0.28575 1.03479,0 z M 18.513849,18.294883 c 0.2858,-0.2857 0.2858,-0.749 0,-1.0347 -0.2857,-0.2858 -0.749,-0.2858 -1.0348,0 -0.2857,0.2857 -0.2857,0.749 0,1.0347 0.2858,0.2858 0.7491,0.2858 1.0348,0 z m -11.5551499,0 c -0.28575,0.2858 -0.74905,0.2858 -1.0348,0 -0.28574,-0.2857 -0.28574,-0.749 0,-1.0348 0.28575,-0.2857 0.74905,-0.2857 1.0348,0 0.28575,0.2858 0.28575,0.7491 0,1.0348 z m -2.17887,-6.2949 c 0,-0.4042 -0.32759,-0.7317 -0.7317,-0.7317 -0.40412,0 -0.73171,0.3275 -0.73171,0.7317 0,0.4041 0.32759,0.7317 0.73171,0.7317 0.40411,0 0.7317,-0.3276 0.7317,-0.7317 z" clip-rule="evenodd"/></svg>