<svg xmlns="http://www.w3.org/2000/svg" xmlns:svg="http://www.w3.org/2000/svg" id="svg15" width="24" height="24" fill="none" version="1.1" viewBox="0 0 24 24"><path id="path4" fill="#000" fill-rule="evenodd" d="m 11.158681,8.0261158 h 1.682636 l 4.282445,7.4615522 -0.682573,1.18749 H 7.5588094 l -0.682573,-1.18749 z m 3.412444,6.7789792 -2.561986,-4.497502 -0.0092,0.01594 -0.0091,-0.01594 -2.5620334,4.497502 z" clip-rule="evenodd" style="stroke-width:.935032"/><path id="path6" fill="#000" fill-rule="evenodd" d="m 9.8028852,3.1172001 h 4.3942278 c 0.663872,0 1.280993,0.355312 1.617604,0.9256813 l 5.928101,10.2011946 c 0.336611,0.579719 0.345961,1.290343 0.0094,1.870063 l -2.206675,3.833629 C 19.218232,20.527488 18.601112,20.8828 17.927889,20.8828 H 6.0721092 c -0.6732227,0 -1.2903435,-0.355312 -1.6176046,-0.935032 L 2.247832,16.114139 C 1.9112207,15.534419 1.920571,14.823795 2.257182,14.244076 L 8.1852806,4.0428814 C 8.521892,3.4725121 9.1390128,3.1172001 9.8028852,3.1172001 Z M 17.927889,19.012737 20.125213,15.188458 14.197113,4.9872632 H 9.8028852 L 3.874785,15.188458 6.0721092,19.012737 Z" clip-rule="evenodd" style="stroke-width:.935032"/><defs id="defs13"><clipPath id="clip0_16_147"><rect id="rect10" width="24" height="24" fill="#fff"/></clipPath></defs></svg>