<svg xmlns="http://www.w3.org/2000/svg" xmlns:svg="http://www.w3.org/2000/svg" id="svg6" width="24" height="24" fill="none" version="1.1" viewBox="0 0 24 24"><g id="g928" transform="matrix(1.1111048,0,0,1.1111048,-1.3332452,-1.3333144)"><path id="path2" fill="#000" d="m 12.0011,9.8966 c -0.7891,0 -3.33421,4.6145 -2.94741,5.392 0.38679,0.7774 5.51181,0.7697 5.89471,0 0.3829,-0.7698 -2.1544,-5.392 -2.9473,-5.392 z"/><path id="path4" fill="#000" d="M 12.001,3 C 9.6184,3 1.95217,16.9015 3.12028,19.2494 c 1.16812,2.3478 16.60502,2.3207 17.76152,0 C 22.0383,16.9286 14.3837,3 12.001,3 Z m 5.8213,14.2148 c -0.7581,1.5201 -10.87277,1.5395 -11.63862,0 C 5.41783,15.6753 10.4423,6.56627 12.001,6.56627 c 1.5588,0 6.5794,9.12453 5.8213,10.64853 z"/></g></svg>