<svg xmlns="http://www.w3.org/2000/svg" xmlns:svg="http://www.w3.org/2000/svg" id="layer" width="24" height="24" x="0" y="0" version="1.1" viewBox="-153 -46 24 24" xml:space="preserve"><style id="style2" type="text/css">.st1{fill:#fff}</style><path id="Oval-2" d="m -141.00015,-43.999855 a 9.9999131,9.9999131 0 0 0 -9.99985,9.99986 9.9999131,9.9999131 0 0 0 9.99985,9.99985 9.9999131,9.9999131 0 0 0 10.00015,-9.99985 9.9999131,9.9999131 0 0 0 -10.00015,-9.99986 z m 0.015,1.24265 c 4.83724,0 8.7572,3.91997 8.7572,8.75721 0,2.0414 -0.69514,3.92002 -1.87856,5.41409 l -4.48233,-4.48203 c 0.11834,-0.29586 0.1774,-0.60657 0.1774,-0.9468 0,-1.42011 -1.15361,-2.574 -2.57371,-2.574 -1.42011,0 -2.574,1.15389 -2.574,2.574 0,0.34023 0.059,0.65094 0.1774,0.9468 l -4.48204,4.48203 c -1.16863,-1.47927 -1.87886,-3.37269 -1.87886,-5.41409 0,-4.83724 3.92026,-8.75721 8.7575,-8.75721 z m -0.015,8.09153 c 0,0 1.62733,2.66258 1.6717,2.61821 l 4.39334,4.37889 c -1.58282,1.49407 -3.69796,2.42578 -6.05001,2.42578 -2.35205,0 -4.48227,-0.91692 -6.0503,-2.42578 l 4.3786,-4.37889 c 0.0444,0.0296 1.65667,-2.61821 1.65667,-2.61821 z" class="st1" style="display:inline;fill:#000;fill-opacity:1;stroke-width:.147928"/><linearGradient id="Fill-4_1_" x1="-296.688" x2="-296.688" y1="552.362" y2="548.137" gradientTransform="matrix(28,0,0,-27.9995,8264,15681.702)" gradientUnits="userSpaceOnUse"><stop style="stop-color:#93d759" id="stop8" offset="0"/><stop style="stop-color:#78b34a" id="stop10" offset="1"/></linearGradient></svg>