<svg xmlns="http://www.w3.org/2000/svg" xmlns:svg="http://www.w3.org/2000/svg" id="svg4" version="1.1" viewBox="0 0 24 24"><path id="path825" fill="#c4c4c4" fill-rule="evenodd" d="M 18.0961,5.10335 H 3.5768401 1.7272511 c -0.591734,0 -0.93489809,0.669939 -0.589145,1.15015 l 2.438734,3.38713 v 6.35222 c 0,1.6037 1.3001,2.9038 2.90386,2.9038 H 18.0961 c 1.6038,0 2.9039,-1.3001 2.9039,-2.9038 V 8.00721 C 21,6.40345 19.6999,5.10335 18.0961,5.10335 Z M 6.7525901,8.00743 c -0.45106,0 -0.81672,0.36565 -0.81672,0.81671 0,0.45105 0.36566,0.81671 0.81671,0.81671 H 17.8236 c 0.451,0 0.8167,-0.36566 0.8167,-0.81671 0,-0.45106 -0.3657,-0.81671 -0.8167,-0.81671 z m -0.81681,3.99277 c 0,-0.45106 0.36565,-0.81671 0.81671,-0.81671 H 17.8235 c 0.451,0 0.8167,0.36565 0.8167,0.81671 0,0.45106 -0.3657,0.81671 -0.8167,0.81671 H 6.7524901 c -0.45106,0 -0.81671,-0.36565 -0.81671,-0.81671 z m 0.81671,2.35933 c -0.45106,0 -0.81671,0.36565 -0.81671,0.81672 0,0.451 0.36565,0.8167 0.81671,0.8167 H 14.5566 c 0.4511,0 0.8167,-0.3657 0.8167,-0.8167 0,-0.45107 -0.3656,-0.81672 -0.8167,-0.81672 z" clip-rule="evenodd" style="fill:#000"/></svg>