<svg xmlns="http://www.w3.org/2000/svg" xmlns:svg="http://www.w3.org/2000/svg" id="svg1094" width="24mm" height="24mm" version="1.1" viewBox="0 0 24 24"><g id="layer1"><path id="path63" d="M 14.199189,17.338116 H 8.2097094 c -1.0262129,0.01096 -1.3855155,1.366851 -0.4994193,1.884601 l 3.5677679,2.022807 c 0.293896,0.167055 0.626224,0.25474 0.964288,0.254438 v 0 c 0.18189,-1.21e-4 0.362801,-0.02646 0.53711,-0.07854 0.841987,-0.239244 1.422099,-1.009289 1.419733,-1.884597 z M 5.9509208,16.215517 7.5214215,15.367447 C 7.9601347,15.126314 8.2323272,14.665049 8.2312874,14.164443 V 8.9924774 c 5.93e-4,-0.575868 0.3605821,-1.090145 0.9014673,-1.28781 l 5.0664343,-1.831204 v -1.391463 c -0.0012,-0.886065 -0.589496,-1.664039 -1.44172,-1.906587 -0.176648,-0.05072 -0.359607,-0.07612 -0.543393,-0.07536 v 0 c -0.345687,7.9e-4 -0.685348,0.09056 -0.986274,0.260712 L 5.4295149,6.0682414 C 4.8313914,6.4090794 4.4620824,7.0445574 4.462087,7.7329724 v 7.5936756 c -0.00193,0.765328 0.8160325,1.253688 1.4888338,0.888903 z M 12.756846,2.5748274 c 0.852601,0.242381 1.441207,1.020609 1.442311,1.906991 v 1.392019 11.4640516 2.198668 c 0.0024,0.875532 -0.577925,1.645769 -1.420184,1.884858 l 5.368935,-1.528807 c 0.822264,-0.236939 1.388895,-0.988902 1.390008,-1.844629 V 5.9482644 c 3.25e-4,-0.857946 -0.568825,-1.611886 -1.39403,-1.84664 z" class="cls-8" style="display:inline;isolation:isolate;fill:#000;fill-opacity:0;stroke:#000;stroke-width:1.00007;stroke-miterlimit:4;stroke-dasharray:none;stroke-opacity:1"/></g></svg>