<svg xmlns="http://www.w3.org/2000/svg" xmlns:svg="http://www.w3.org/2000/svg" id="Layer_1" data-name="Layer 1" version="1.1" viewBox="0 0 24 24"><g id="g3984" transform="matrix(0.07405793,0,0,0.07405793,31.847525,8.4822483)"><path id="path3319" d="m -361.48528,3.4852814 -38.02944,38.0294376 a 12,12 90.000001 0 0 0,16.970563 l 40.86042,40.860421 c 0.84287,-2.593074 2.20713,-5.041107 4.24024,-7.074219 l 49.34375,-49.341796 -39.44441,-39.4444068 a 12,12 180 0 0 -16.97056,2e-7 z M -290.92969,57.070312 -338.85742,105 -298,145.85742 -250.07031,97.929688 Z" style="fill:#000;fill-opacity:1;stroke:none;stroke-width:1px;stroke-linecap:butt;stroke-linejoin:miter;stroke-opacity:1"/><path style="fill:#000;fill-opacity:1;stroke:none;stroke-width:1px;stroke-linecap:butt;stroke-linejoin:miter;stroke-opacity:1" id="path3313" d="M -289.51472,151.51472 -136.48528,-1.5147186 a 12,12 90 0 0 0,-16.9705624 l -38.02944,-38.029438 a 12,12 180 0 0 -16.97056,0 L -344.51472,96.514719 a 12,12 90 0 0 0,16.970561 l 38.02944,38.02944 a 12,12 180 0 0 16.97056,0 z"/></g></svg>