<svg xmlns="http://www.w3.org/2000/svg" xmlns:svg="http://www.w3.org/2000/svg" id="Layer_1" width="24" height="24" version="1.1" viewBox="0 0 24 24"><style id="style2">.st1{fill:#fff}</style><path id="path6" d="m 17.200715,12.075645 c 0.844228,-0.964336 1.444773,-2.017599 1.700004,-3.0050338 0.142052,-0.5531942 0.176699,-1.0856005 0.082,-1.5706559 -0.412297,-2.146948 -3.15748,-2.5580901 -6.142881,-0.9296895 l -0.40768,-2.1180754 -3.158634,1.7450447 0.511617,2.657411 c 0.329145,-0.2067263 0.654825,-0.3406939 0.950478,-0.3707212 1.005912,-0.1039403 1.288862,0.9920541 0.635192,2.4472201 -0.230979,0.515084 -0.550884,1.004759 -0.911211,1.429759 l 0.599389,3.11475 c 0.0012,0.0023 0.0012,0.0035 0.0012,0.0035 l 0.0104,0.05543 0.0023,-0.0012 c 0.453872,2.107682 3.203676,2.491106 6.184456,0.846537 2.94498,-1.627245 5.01686,-4.627659 4.713123,-6.7792275 -0.12011,0.8580865 -0.970111,1.9171245 -2.108836,2.5465405 -1.209175,0.666375 -2.325957,0.621334 -2.658567,-0.06236 0,-0.0058 -0.0023,-0.0081 -0.0023,-0.0092 z M 8.3657767,13.750242 C 7.3598639,13.853031 7.0769149,12.757033 7.730585,11.303022 7.9927456,10.720955 8.3646215,10.172381 8.781538,9.7127322 L 8.2167953,6.7793016 2.000001,10.211647 3.7970159,19.54781 10.01381,16.115466 9.467545,13.279046 c -0.37996,0.26447 -0.75992,0.435394 -1.1017683,0.471196 z" class="st1" style="display:inline;fill:#000;fill-opacity:1;stroke-width:.0115489"/></svg>