<svg xmlns="http://www.w3.org/2000/svg" xmlns:svg="http://www.w3.org/2000/svg" id="Layer_1" data-name="Layer 1" version="1.1" viewBox="0 0 24 24"><path id="path2" d="M 6.4921875 2 C 5.3867642 2.019361 4.3828145 2.9087351 4.3828125 4.1464844 L 4.3828125 19.853516 C 4.3828151 21.503848 6.1684043 22.534112 7.5976562 21.708984 L 14.398438 17.783203 L 21.199219 13.857422 C 22.628476 13.032246 22.628471 10.967761 21.199219 10.142578 L 14.398438 6.2167969 L 7.5976562 2.2910156 C 7.2403433 2.0847337 6.8606619 1.9935463 6.4921875 2 z M 10.681641 6.5019531 C 10.788866 6.4944992 10.895155 6.5143149 10.992188 6.5605469 C 12.992314 7.6112139 13.942457 9.5095649 14.392578 11.074219 C 14.466317 11.563411 13.806506 11.790834 13.564453 11.359375 C 13.152852 10.807996 12.62764 10.244801 11.978516 9.7871094 C 11.752902 9.6280308 11.558594 9.741436 11.558594 10.017578 L 11.558594 15.894531 C 11.558594 17.057385 10.470661 18 9.1289062 18 C 7.7871522 18 6.6992185 17.057385 6.6992188 15.894531 C 6.6992192 14.731678 7.7871526 13.789062 9.1289062 13.789062 C 9.4633758 13.789195 9.7950827 13.848762 10.101562 13.964844 L 10.101562 8.9296875 L 10.101562 8.28125 L 10.101562 7.1484375 C 10.088279 6.8114253 10.345176 6.5253031 10.681641 6.5019531 z"/></svg>