<svg xmlns="http://www.w3.org/2000/svg" xmlns:svg="http://www.w3.org/2000/svg" id="svg10" width="24" height="24" version="1.1" viewBox="0 0 24 24"><path id="path11234" fill="#0364b8" d="M 17.747858,10.419838 C 16.954534,7.3264593 13.803745,5.4618854 10.710349,6.2552094 9.3173069,6.6124603 8.1073815,7.4760203 7.316734,8.6773053" style="fill:none;stroke:#000;stroke-width:1.5;stroke-miterlimit:4;stroke-dasharray:none;stroke-opacity:1"/><path id="path11236" d="M 20.8032,15.951411 13.689386,11.690712 9.8063305,9.3652161 C 9.0765601,8.9132273 8.2344559,8.6738078 7.3760334,8.6749755 c -0.019831,0 -0.039832,0.00157 -0.059628,0.0018 -2.5533527,0.031636 -4.5976829,2.1283605 -4.5660679,4.6817135 0.011461,0.926214 0.301357,1.827711 0.8311798,2.587498 0.8639372,1.242134 2.2814807,1.981167 3.7945161,1.980375 H 17.494742" style="fill:none;stroke:#000;stroke-width:1.5;stroke-miterlimit:4;stroke-dasharray:none;stroke-opacity:1"/><path id="path11238" d="m 3.5815173,15.94599 10.1078687,-4.255279 2.5498,-1.074685 c 0.235147,-0.10076 0.743193,-0.206919 1.255556,-0.206416 0.08536,0 0.169012,0.0052 0.252969,0.01084 0.535122,0.03623 1.056451,0.186528 1.528646,0.440886 1.827428,0.984363 2.511204,3.262645 1.526843,5.090072 -0.655727,1.216734 -1.926265,1.975351 -3.308458,1.974955 h -6.943984" style="fill:none;stroke:#000;stroke-width:1.5;stroke-miterlimit:4;stroke-dasharray:none;stroke-opacity:1"/></svg>