<svg xmlns="http://www.w3.org/2000/svg" xmlns:svg="http://www.w3.org/2000/svg" id="svg4" width="24" height="24" fill="none" version="1.1" viewBox="0 0 24 24"><path id="path2" fill="#000" fill-rule="evenodd" d="M 18.976909,19.723909 C 17.249636,21.146 15.037,22 12.625,22 c -5.5228455,0 -10,-4.477182 -10,-10 0,-5.5228455 4.4771545,-10 10,-10 2.412,0 4.624636,0.8539636 6.351909,2.2760455 C 17.851,3.4658091 16.533364,3 15.125,3 c -4.142091,0 -7.5,4.0294364 -7.5,9 0,4.970545 3.357909,9 7.5,9 1.408364,0 2.726,-0.465818 3.851909,-1.276091 z M 12.456636,5.0038909 C 13.282545,4.5169364 14.193636,4.25 15.125,4.25 c 3.248091,0 6.25,3.2467182 6.25,7.75 0,4.503273 -3.001909,7.75 -6.25,7.75 -0.931364,0 -1.842455,-0.266909 -2.668364,-0.753909 0.05591,0.0026 0.112,0.0039 0.168364,0.0039 2.761455,0 5,-3.134 5,-7 0,-3.8659909 -2.238545,-7 -5,-7 -0.05636,0 -0.112455,0.0013 -0.168364,0.00389 z" clip-rule="evenodd" style="stroke-width:.909091"/></svg>