<svg xmlns="http://www.w3.org/2000/svg" xmlns:svg="http://www.w3.org/2000/svg" xmlns:xlink="http://www.w3.org/1999/xlink" id="svg29" version="1.1" viewBox="0 0 24 24"><defs id="defs20"><clipPath id="i"><g id="use2" clip-path="url(#j)"><g id="g854" clip-path="url(#k)" transform="matrix(1.8696,0,0,1.8696,-16.311,-3.27)"><path id="path852" stroke-width="1.212" d="m 17.961,2.137 a 0.666,0.666 0 0 0 -0.666,0.668 v 0.666 h -0.668 a 0.664,0.664 0 0 0 -0.666,0.666 c 0,0.369 0.297,0.668 0.666,0.668 h 0.668 v 0.666 a 0.666,0.666 0 1 0 1.332,0 V 4.805 h 0.668 c 0.37,0 0.666,-0.299 0.666,-0.668 A 0.664,0.664 0 0 0 19.295,3.471 H 18.627 V 2.805 A 0.666,0.666 0 0 0 17.961,2.137 Z" transform="matrix(0.825,0,0,0.825,3.732,1.237)" style="display:inline"/></g></g></clipPath><clipPath id="j"><g id="use5" clip-path="url(#k)"><path id="path860" stroke-width="1.212" d="m 17.961,2.137 a 0.666,0.666 0 0 0 -0.666,0.668 v 0.666 h -0.668 a 0.664,0.664 0 0 0 -0.666,0.666 c 0,0.369 0.297,0.668 0.666,0.668 h 0.668 v 0.666 a 0.666,0.666 0 1 0 1.332,0 V 4.805 h 0.668 c 0.37,0 0.666,-0.299 0.666,-0.668 A 0.664,0.664 0 0 0 19.295,3.471 H 18.627 V 2.805 A 0.666,0.666 0 0 0 17.961,2.137 Z" transform="matrix(1.54242,0,0,1.54242,-9.3336528,-0.9573048)" style="display:inline"/></g></clipPath><clipPath id="k"><use id="use8" width="100%" height="100%" x="0" y="0" transform="matrix(0.53487377,0,0,0.53487377,8.7243261,1.7490372)" xlink:href="#c"/></clipPath><clipPath id="f"><use id="use11" width="100%" height="100%" xlink:href="#d"/></clipPath><clipPath id="g"><use id="use14" width="100%" height="100%" xlink:href="#e"/></clipPath><clipPath id="h"><use id="use17" width="100%" height="100%" xlink:href="#g5693-9"/></clipPath></defs><path id="path22" d="M12 2.78c-5.103 0-9.24 4.139-9.24 9.243 0 4.43 3.115 8.13 7.273 9.032l1.7 1.619a.392.392 0 0 0 .535 0l1.699-1.62c4.158-.901 7.273-4.601 7.273-9.03a9.2 9.2 0 0 0-1.258-4.655v.111c0 .882-.727 1.616-1.61 1.616a1.625 1.625 0 0 1-1.614-1.616v-.443h-.446a1.622 1.622 0 0 1-1.61-1.613c0-.86.691-1.573 1.542-1.61A9.194 9.194 0 0 0 12 2.78zm0 3.962a5.28 5.28 0 1 1-.002 10.56A5.28 5.28 0 0 1 12 6.743z"/><path id="c" stroke-width="1.869" d="M 18.369753,2.3388467 A 1.0272517,1.0272517 0 0 0 17.342501,3.3691833 V 4.396435 h -1.030336 a 1.0241669,1.0241669 0 0 0 -1.027252,1.0272517 c 0,0.569153 0.458099,1.0303366 1.027252,1.0303366 h 1.030336 V 7.481275 a 1.027252,1.027252 0 1 0 2.054504,0 V 6.4540233 h 1.030336 c 0.570695,0 1.027252,-0.4611836 1.027252,-1.0303366 A 1.0241669,1.0241669 0 0 0 20.427341,4.396435 H 19.397005 V 3.3691833 A 1.0272517,1.0272517 0 0 0 18.369753,2.3388467 Z" style="display:inline"/></svg>