<svg xmlns="http://www.w3.org/2000/svg" xmlns:svg="http://www.w3.org/2000/svg" id="Layer_1" data-name="Layer 1" version="1.1" viewBox="0 0 24 24"><g id="g993" transform="translate(-2.473506e-4,-1.0309094e-4)"><circle id="circle2" cx="18.26" cy="9.385" r="1.086" style="stroke-width:.904978"/><path id="path4" d="m 16.496094,2 a 5.6018146,5.6018146 0 0 0 -5.429688,4.3535156 5.7647106,5.7647106 0 0 0 -0.146484,1.2578125 v 8.7773439 a 1.1674218,1.1674218 0 1 1 -1.1582032,-1.158203 1.1131231,1.1131231 0 0 1 0.3085932,0.04687 v -4.34375 a 5.873308,5.873308 0 0 0 -0.3085932,0.0078 5.5294163,5.5294163 0 1 0 5.5117192,5.75586 V 16.460938 8.6523438 A 2.2986444,2.2986444 0 0 1 17.572266,6.3535156 H 19.78125 V 2 Z" style="stroke-width:.904978"/><path id="path6" d="M 10.070081,6.3529448 A 6.4253447,6.4253447 0 0 1 13.128907,2 H 6.3777703 v 4.3529448 z" style="stroke-width:.904978"/></g></svg>