<svg xmlns="http://www.w3.org/2000/svg" xmlns:svg="http://www.w3.org/2000/svg" id="svg5" version="1.1" viewBox="0 0 24 24"><path id="path871" d="M 11.999983,2.0000003 C 8.1725623,2.0071114 5.0383953,5.0852795 4.9112554,8.9620397 h -0.011967 v 0.1692631 c -0.00178,0.02336 -0.00344,0.04664 -0.00489,0.07003 0.00144,0.02322 0.00311,0.04645 0.00489,0.06968 V 21.9652 L 7.8054557,22 v -7.06163 c 1.2354942,0.965633 2.6343133,1.457535 4.1945263,1.463975 3.924232,-4.8e-5 7.105468,-3.223979 7.105619,-7.2009852 3.9e-5,-3.9771425 -3.181254,-7.2012863 -7.105619,-7.2013339 z m -0.02218,2.7522282 c 2.362709,4.78e-5 4.278047,1.9766751 4.278082,4.4149673 1.58e-4,2.4384372 -1.915236,4.4152822 -4.278082,4.4153302 C 9.6149593,13.582478 7.6995649,11.605633 7.6997227,9.1671958 7.6997582,6.7289036 9.6150953,4.7522763 11.977803,4.7522285 Z" style="display:inline;fill:#000;stroke-width:.175629"/></svg>