<svg xmlns="http://www.w3.org/2000/svg" xmlns:svg="http://www.w3.org/2000/svg" id="svg4" width="24" height="24" fill="none" version="1.1" viewBox="0 0 24 24"><path id="path2" fill="#000" fill-rule="evenodd" d="m 15.64585,14.3632 c 1.8492,-1.1968 3.0729,-3.2777 3.0729,-5.64445 C 18.71875,5.00809 15.71065,2 11.99995,2 8.28934,2 5.28125,5.00809 5.28125,8.71875 c 0,2.36675 1.22371,4.44765 3.07292,5.64445 v 5.3451 c 0,0.5753 0.46637,1.0417 1.04166,1.0417 h 0.625 v 0.2083 c 0,0.5753 0.46642,1.0417 1.04162,1.0417 h 1.875 c 0.5753,0 1.0417,-0.4664 1.0417,-1.0417 V 20.75 h 0.625 c 0.5753,0 1.0417,-0.4664 1.0417,-1.0417 z m -0.4167,-3.0924 v 1.25 h -2.6042 v 5.625 h -1.25 v -5.625 H 8.77083 v -1.25 z" clip-rule="evenodd"/></svg>