<svg xmlns="http://www.w3.org/2000/svg" xmlns:svg="http://www.w3.org/2000/svg" id="svg6" width="24" height="24" fill="none" version="1.1" viewBox="0 0 24 24"><path id="path1165" d="M 12 2 C 6.4890026 2 2 6.4890026 2 12 C 2 17.510997 6.4890026 22 12 22 L 12 20 C 7.5698818 20 4 16.430118 4 12 C 4 7.5698818 7.5698818 4 12 4 C 16.430118 4 20 7.5698818 20 12 L 22 12 C 22 6.4890026 17.510997 2 12 2 z" style="color:#000;fill:#000;stroke-linejoin:round;-inkscape-stroke:none"/><path id="path1359" d="m 12,6 c -3.3018606,0 -6,2.698139 -6,6 0,3.301861 2.6981394,6 6,6 V 16 C 9.7790186,16 8,14.220981 8,12 8,9.779019 9.7790186,8 12,8 c 2.220981,0 4,1.779019 4,4 h 2 C 18,8.698139 15.301861,6 12,6 Z" style="color:#000;fill:#000;stroke-linejoin:round;-inkscape-stroke:none"/></svg>