<svg xmlns="http://www.w3.org/2000/svg" xmlns:svg="http://www.w3.org/2000/svg" id="svg4818" version="1.1" viewBox="0 0 24 24"><defs id="defs4"><style id="style2">.cls-1{fill:#040404;stroke:#000;stroke-miterlimit:15.12;stroke-opacity:0;stroke-width:.46px}</style></defs><path id="path2097" d="m 18.709744,2.2300569 a 2.2000802,2.2000802 0 0 0 -2.259811,2.1403495 v 0.059731 L 7.0821711,7.4166714 A 2.2598109,2.2598109 0 0 0 5.2902505,6.5704867 2.2000802,2.2000802 0 0 0 3.0403948,8.7307465 v 0 a 2.1901252,2.1901252 0 0 0 2.2498557,2.1403495 v 0 a 2.2896763,2.2896763 0 0 0 0.6371273,-0.08959 l 6.1920802,7.86454 a 2.0706638,2.0706638 0 0 0 -0.189146,0.87605 2.2498558,2.2498558 0 0 0 4.499711,0 v 0 A 2.1005291,2.1005291 0 0 0 15.7033,17.929272 L 19.038263,6.5008009 A 2.1901252,2.1901252 0 0 0 20.9596,4.3704064 2.1901252,2.1901252 0 0 0 18.709744,2.2300569 Z m -1.572908,3.6833922 a 1.9014268,1.9014268 0 0 0 0.318563,0.2389227 L 14.170212,17.371786 a 2.2996313,2.2996313 0 0 0 -0.85614,0.169237 L 7.2314978,9.8258086 A 2.1702149,2.1702149 0 0 0 7.5301512,8.959714 Z" class="cls-1"/></svg>