<svg xmlns="http://www.w3.org/2000/svg" xmlns:svg="http://www.w3.org/2000/svg" xmlns:xlink="http://www.w3.org/1999/xlink" id="svg21" width="24" height="24" preserveAspectRatio="xMidYMid" version="1.1" viewBox="0 0 24 24"><defs id="defs8"><path id="a" d="M 256,128 C 256,198.692 198.692,256 128,256 57.308,256 0,198.692 0,128 0,57.308 57.308,0 128,0 198.692,0 256,57.308 256,128"/><linearGradient id="c" x1=".086" x2=".775" y1=".02" y2=".739"><stop id="stop3" offset="0%" stop-color="#4CB36B"/><stop id="stop5" offset="100%" stop-color="#3EA16F"/></linearGradient></defs><mask id="b" fill="#fff"><use id="use10" width="100%" height="100%" x="0" y="0" xlink:href="#a"/></mask><path id="path19" fill="#fff" d="m 77,189.6 c -16.733,0 -16.733,0 -16.733,-16.733 V 81 c 0,-16.733 0,-16.733 16.733,-16.733 h 3.334 c 16.733,0 16.733,0 16.733,16.733 v 91.867 c 0,16.733 0,16.733 -16.733,16.733 z m 44.041,0 c -5.699,0 -8.508,-2.809 -8.508,-8.508 V 72.774 c 0,-5.698 2.809,-8.507 8.508,-8.507 h 37.537 c 32.178,0 52.628,32.273 52.628,63.025 0,30.752 -20.628,62.308 -52.628,62.308 z" mask="url(#b)" transform="matrix(0.11925347,0,0,0.11925347,-3.1870489,-3.1372603)" style="display:inline;fill:#000;fill-opacity:1"/></svg>