<svg xmlns="http://www.w3.org/2000/svg" xmlns:svg="http://www.w3.org/2000/svg" id="Layer_1" width="24" height="24" x="0" y="0" version="1.1" viewBox="0 0 24 24" xml:space="preserve"><style id="style2" type="text/css">.st0{fill:#e01e5a}.st1{fill:#36c5f0}.st2{fill:#2eb67d}.st3{fill:#ecb22e}</style><g id="g28" transform="matrix(0.16286645,0,0,0.16286645,-9.9869707,-9.9869707)" style="fill:#000;fill-opacity:1"><g id="g8" style="fill:#000;fill-opacity:1"><path id="path4" d="m 99.4,151.2 c 0,7.1 -5.8,12.9 -12.9,12.9 -7.1,0 -12.9,-5.8 -12.9,-12.9 0,-7.1 5.8,-12.9 12.9,-12.9 h 12.9 z" class="st0" style="fill:#000;fill-opacity:1"/><path id="path6" d="m 105.9,151.2 c 0,-7.1 5.8,-12.9 12.9,-12.9 7.1,0 12.9,5.8 12.9,12.9 v 32.3 c 0,7.1 -5.8,12.9 -12.9,12.9 -7.1,0 -12.9,-5.8 -12.9,-12.9 z" class="st0" style="fill:#000;fill-opacity:1"/></g><g id="g14" style="fill:#000;fill-opacity:1"><path id="path10" d="m 118.8,99.4 c -7.1,0 -12.9,-5.8 -12.9,-12.9 0,-7.1 5.8,-12.9 12.9,-12.9 7.1,0 12.9,5.8 12.9,12.9 v 12.9 z" class="st1" style="fill:#000;fill-opacity:1"/><path id="path12" d="m 118.8,105.9 c 7.1,0 12.9,5.8 12.9,12.9 0,7.1 -5.8,12.9 -12.9,12.9 H 86.5 c -7.1,0 -12.9,-5.8 -12.9,-12.9 0,-7.1 5.8,-12.9 12.9,-12.9 z" class="st1" style="fill:#000;fill-opacity:1"/></g><g id="g20" style="fill:#000;fill-opacity:1"><path id="path16" d="m 170.6,118.8 c 0,-7.1 5.8,-12.9 12.9,-12.9 7.1,0 12.9,5.8 12.9,12.9 0,7.1 -5.8,12.9 -12.9,12.9 h -12.9 z" class="st2" style="fill:#000;fill-opacity:1"/><path id="path18" d="m 164.1,118.8 c 0,7.1 -5.8,12.9 -12.9,12.9 -7.1,0 -12.9,-5.8 -12.9,-12.9 V 86.5 c 0,-7.1 5.8,-12.9 12.9,-12.9 7.1,0 12.9,5.8 12.9,12.9 z" class="st2" style="fill:#000;fill-opacity:1"/></g><g id="g26" style="fill:#000;fill-opacity:1"><path id="path22" d="m 151.2,170.6 c 7.1,0 12.9,5.8 12.9,12.9 0,7.1 -5.8,12.9 -12.9,12.9 -7.1,0 -12.9,-5.8 -12.9,-12.9 v -12.9 z" class="st3" style="fill:#000;fill-opacity:1"/><path id="path24" d="m 151.2,164.1 c -7.1,0 -12.9,-5.8 -12.9,-12.9 0,-7.1 5.8,-12.9 12.9,-12.9 h 32.3 c 7.1,0 12.9,5.8 12.9,12.9 0,7.1 -5.8,12.9 -12.9,12.9 z" class="st3" style="fill:#000;fill-opacity:1"/></g></g></svg>