<svg xmlns="http://www.w3.org/2000/svg" xmlns:svg="http://www.w3.org/2000/svg" id="svg4" width="24" height="24" fill="none" version="1.1" viewBox="0 0 24 24"><path style="display:inline;fill:#000;fill-opacity:1;stroke:none;stroke-width:.0971193;stroke-linecap:round;stroke-miterlimit:0;stroke-opacity:.664336" id="path4339" d="M 11.989029,2.1127251 C 10.394038,2.1012054 8.7697469,2.719429 7.7182448,3.9455677 6.7856351,4.9350181 6.4334925,6.3374547 6.480353,7.6692023 6.476363,8.3530889 6.484723,9.0369691 6.487183,9.7208482 5.8335304,9.5581722 5.170638,9.1029684 4.4786909,9.3283872 3.8890674,9.5037512 3.643044,10.275479 3.9991643,10.770286 c 0.3834359,0.502501 0.9794781,0.789162 1.4774656,1.163819 0.2447836,0.200285 0.5750052,0.343425 0.7572272,0.601021 -1.599e-4,0.617315 -0.3233026,1.188824 -0.6296632,1.708409 -0.7461693,1.17608 -1.9121396,2.075148 -3.1605511,2.696294 -0.3187102,0.138329 -0.6121586,0.553675 -0.3297694,0.868383 0.5149177,0.483925 1.2435957,0.638455 1.8926887,0.866581 0.2728861,0.08559 0.6771003,0.179119 0.6514771,0.545728 0.044646,0.390508 0.2939155,0.81053 0.7322835,0.812141 1.0496144,0.121628 2.1717574,0.06975 3.1126552,0.633456 0.92227,0.535251 1.8715721,1.132116 2.9672691,1.19713 1.091714,0.102582 2.216433,-0.118629 3.152314,-0.702094 0.697322,-0.38529 1.376983,-0.865493 2.194066,-0.943461 0.687422,-0.161127 1.427037,-0.02014 2.091396,-0.276839 0.425664,-0.182643 0.368277,-0.700647 0.547149,-1.043274 0.337677,-0.233413 0.769334,-0.260343 1.145421,-0.414464 0.491488,-0.196385 1.111247,-0.347251 1.369059,-0.856813 0.153077,-0.405921 -0.308326,-0.627845 -0.593812,-0.785775 -1.517366,-0.784771 -2.884046,-1.993631 -3.482784,-3.633011 -0.06607,-0.258729 -0.303829,-0.645939 0.01115,-0.835805 0.660488,-0.557921 1.521835,-0.878487 2.068528,-1.565291 0.413849,-0.518924 0.125589,-1.4096828 -0.552082,-1.5128418 -0.657048,-0.104059 -1.269973,0.252949 -1.886907,0.417879 C 17.479812,8.5717399 17.600633,7.4090089 17.430329,6.2714181 17.106372,4.4264509 15.628359,2.9100006 13.855161,2.379993 13.252341,2.1927786 12.619667,2.1078641 11.989029,2.1127251 Z"/></svg>