<svg xmlns="http://www.w3.org/2000/svg" xmlns:svg="http://www.w3.org/2000/svg" id="svg6" width="24" height="24" fill="none" version="1.1" viewBox="0 0 24 24"><g id="g5711" transform="matrix(0.17322834,0,0,0.17322834,12.779528,0.78346478)"><path id="path2129-7" d="M 9,33 C 4.6533677,33 0.52584165,33.92903 -3.2022108,35.593268 -4.2106551,36.043447 -5,37.364181 -5,38.46875 V 87 a 2,2 45 0 0 2,2 H 23.824219 30 c 0,0 7.579628,-0.0155 12,0 9.388841,0 17,-7.61116 17,-17 0,-9.38884 -7.611159,-17 -17,-17 -1.333715,0.0135 -2.661204,0.18397 -3.955078,0.50781 C 34.628162,42.26004 22.681288,33.00204 9,33 Z" style="opacity:1;fill:#010000;fill-opacity:1;stroke:none;stroke-width:6.8;stroke-linejoin:round"/><path style="opacity:1;fill:#010000;fill-opacity:1;stroke:none;stroke-width:10.2062;stroke-linejoin:round" id="path5242" d="m -9.0245001,68.999795 c -0.1158264,7.832116 -0.5664459,14.514727 -1.1949289,18.414203 -0.3408,2.114525 -2.22035,2.114499 -2.561152,-5.8e-5 -0.628479,-3.899494 -1.079095,-10.582101 -1.19492,-18.414203 -0.03266,-2.208845 -0.03266,-5.790777 10e-7,-7.999655 0.115826,-7.832115 0.566446,-14.514726 1.194929,-18.414202 0.3408,-2.114525 2.22035,-2.114499 2.561152,5.8e-5 0.628479,3.899494 1.0790953,10.582101 1.1949198,18.414203 0.032665,2.208845 0.032665,5.790777 -9e-7,7.999654 z"/><path style="opacity:1;fill:#010000;fill-opacity:1;stroke:none;stroke-width:10.2062;stroke-linejoin:round" id="path5568" d="m -18.032986,72.499665 c -0.124312,6.242987 -0.534435,11.594708 -1.104258,14.92098 -0.360693,2.105503 -2.364831,2.105478 -2.725525,-5.7e-5 -0.56982,-3.326287 -0.97994,-8.678005 -1.10425,-14.920981 -0.04398,-2.208633 -0.04398,-5.790759 2e-6,-7.999424 0.124311,-6.242988 0.534434,-11.594708 1.104257,-14.920981 0.360694,-2.105503 2.364831,-2.105477 2.725526,5.7e-5 0.569819,3.326287 0.97994,8.678005 1.104249,14.920982 0.04398,2.208633 0.04398,5.790759 -1e-6,7.999424 z"/><path style="opacity:1;fill:#010000;fill-opacity:1;stroke:none;stroke-width:10.2062;stroke-linejoin:round" id="path5574" d="m -27.030157,71.49973 c -0.121858,6.694358 -0.544341,12.424326 -1.132212,15.918871 -0.354666,2.108277 -2.320608,2.108251 -2.675275,-5.6e-5 -0.587868,-3.494561 -1.010348,-9.224526 -1.132204,-15.918873 -0.04021,-2.208711 -0.04021,-5.790766 10e-7,-7.999509 0.121858,-6.694358 0.544341,-12.424326 1.132213,-15.918871 0.354665,-2.108276 2.320607,-2.108251 2.675274,5.7e-5 0.587868,3.49456 1.010348,9.224525 1.132204,15.918872 0.04021,2.208711 0.04021,5.790766 -10e-7,7.999509 z"/><path style="opacity:1;fill:#010000;fill-opacity:1;stroke:none;stroke-width:10.2062;stroke-linejoin:round" id="path5580" d="m -36.034406,72.999807 c -0.125539,6.018299 -0.52923,11.181654 -1.089611,14.422356 -0.36383,2.104047 -2.387999,2.104021 -2.751831,-5.7e-5 -0.560378,-3.240716 -0.964065,-8.404068 -1.089602,-14.422357 -0.04607,-2.208586 -0.04607,-5.790755 10e-7,-7.999373 0.125539,-6.018299 0.52923,-11.181654 1.089611,-14.422356 0.36383,-2.104046 2.387999,-2.104021 2.751831,5.7e-5 0.560378,3.240716 0.964065,8.404068 1.089602,14.422357 0.04607,2.208587 0.04607,5.790755 -10e-7,7.999373 z"/><path style="opacity:1;fill:#010000;fill-opacity:1;stroke:none;stroke-width:10.2062;stroke-linejoin:round" id="path5605" d="m -45.052496,76.999242 c -0.134559,4.24401 -0.478682,7.917562 -0.950298,10.43269 -0.391992,2.090498 -2.602413,2.090473 -2.994407,-5.5e-5 -0.471613,-2.515139 -0.815733,-6.188689 -0.950289,-10.432692 -0.07,-2.207906 -0.07,-5.790703 2e-6,-7.99864 0.134558,-4.24401 0.478681,-7.917562 0.950297,-10.432691 0.391993,-2.090497 2.602413,-2.090473 2.994408,5.6e-5 0.471612,2.515138 0.815732,6.188689 0.950288,10.432691 0.07,2.207907 0.07,5.790703 -10e-7,7.998641 z"/><path style="opacity:1;fill:#010000;fill-opacity:1;stroke:none;stroke-width:10.2062;stroke-linejoin:round" id="path5611" d="m -54.059224,75.999127 c -0.136242,3.808408 -0.462711,7.115313 -0.90765,9.435955 -0.400039,2.086455 -2.666207,2.08643 -3.066247,-5.7e-5 -0.444936,-2.320651 -0.771402,-5.627554 -0.907642,-9.435956 -0.07897,-2.207578 -0.07897,-5.790678 3e-6,-7.998288 0.136241,-3.808408 0.46271,-7.115312 0.90765,-9.435955 0.400038,-2.086455 2.666207,-2.086429 3.066247,5.7e-5 0.444936,2.320652 0.771401,5.627555 0.907641,9.435956 0.07897,2.207578 0.07897,5.790678 -2e-6,7.998288 z"/><path style="opacity:1;fill:#010000;fill-opacity:1;stroke:none;stroke-width:10.2062;stroke-linejoin:round" id="path5617" d="m -63.126112,75.996373 c -0.129751,1.699694 -0.339917,3.219541 -0.608962,4.458401 -0.447468,2.060433 -3.082429,2.060402 -3.529897,-7e-5 -0.269042,-1.238864 -0.479205,-2.758711 -0.608953,-4.458402 -0.168105,-2.202166 -0.168106,-5.790394 6e-6,-7.992599 0.12975,-1.699694 0.339917,-3.219541 0.608962,-4.458401 0.447467,-2.060432 3.082428,-2.060401 3.529897,7e-5 0.269042,1.238864 0.479204,2.758711 0.608952,4.458402 0.168105,2.202166 0.168106,5.790394 -5e-6,7.992599 z"/></g></svg>