<svg xmlns="http://www.w3.org/2000/svg" xmlns:svg="http://www.w3.org/2000/svg" id="svg4" width="24" height="24" fill="none" version="1.1" viewBox="0 0 24 24"><g id="g911" transform="translate(-36.267928,2.3395645)"><path style="fill:#000;fill-opacity:1;fill-rule:evenodd;stroke:none;stroke-width:.0793614" id="path14" d="m 48.223752,-0.33956453 c -5.600532,0 -9.955824,4.53332173 -9.955824,10.04417703 0,2.3117975 0.800052,4.6231435 2.311089,6.4008335 l 0.621948,0.710302 1.155547,-1.154381 -0.444081,-0.623115 c -1.244388,-1.511828 -1.867008,-3.378176 -1.867008,-5.3336395 0,-4.6228018 3.734189,-8.3561974 8.356195,-8.3561974 4.622006,0 8.356196,3.7333956 8.356196,8.3561974 0,1.9554635 -0.711875,3.8218115 -1.868169,5.3336395 l -0.442922,0.623115 1.155545,1.154381 0.621949,-0.710302 c 1.244387,-1.86658 2.043711,-4.089036 2.043711,-6.4008335 0,-5.5108553 -4.443644,-10.04417703 -10.044176,-10.04417703 z m 3.644502,5.59986143 -5.59986,4.4443156 1.955358,1.9553585 4.444315,-5.5998594 z"/></g></svg>