<svg xmlns="http://www.w3.org/2000/svg" id="Layer_1" data-name="Layer 1" viewBox="0 0 24 24"><g><rect width="6.184" height="1.096" x="2.557" y="20.941"/><path d="M10.291,5.05542h.85151L7.74066,14.228h8.57642L12.47327,3.95923h-5.526V5.05542H9.12012L3.88739,18.97418H2.55652v1.09625H4.64587Zm4.44526,8.07635h-5.42l2.69727-7.27343Z"/><polygon points="8.132 16.18 15.931 16.18 16.859 18.974 15.349 18.974 15.349 20.07 18.497 20.07 16.603 15.084 7.456 15.084 5.589 20.07 8.741 20.07 8.741 18.974 7.219 18.974 8.132 16.18"/><rect width="6.135" height="1.096" x="15.349" y="20.941"/><polygon points="20.128 18.974 13.861 2.038 6.947 2.042 6.947 3.137 13.098 3.135 19.365 20.07 21.483 20.07 21.483 18.974 20.128 18.974"/></g></svg>