<svg xmlns="http://www.w3.org/2000/svg" xmlns:svg="http://www.w3.org/2000/svg" id="svg4" width="24" height="24" fill="none" version="1.1" viewBox="0 0 24 24"><path id="path2" fill="#000" d="M 20.717045,10.213454 V 6.7903455 c -0.895818,0.00136 -1.774,-0.2493182 -2.534,-0.723491 -1.131817,-0.705909 -1.947272,-1.8704818 -2.186364,-3.2335363 -0.02282,-0.1302727 -0.04036,-0.2614 -0.05255,-0.3930273 V 2 h -3.444908 v 13.672545 c -0.0055,1.593728 -1.299637,2.884364 -2.8957735,2.884364 -0.4685727,0 -0.9109727,-0.111182 -1.3027636,-0.308727 l -9.09e-5,-9.1e-5 C 7.3556727,17.771455 6.7076818,16.792818 6.7076818,15.662727 c 0,-1.598363 1.2963454,-2.894272 2.8957727,-2.894272 0.3064455,0 0.6017725,0.04764 0.8788635,0.135545 L 10.4825,10.180036 V 9.4044182 C 10.194591,9.3650909 9.9043909,9.3453545 9.6138181,9.3455 6.117309,9.3454273 3.2829545,12.178273 3.2829545,15.672545 c 0,2.190455 1.1136909,4.121 2.8060818,5.256728 l 5.364e-4,5.45e-4 C 7.0967727,21.605727 8.3092545,22 9.6137454,22 13.109955,22 15.944228,19.167182 15.944228,15.672636 V 8.6869727 c 1.345544,0.9609909 2.993181,1.5264823 4.772817,1.5264813 z" style="stroke-width:.909091"/></svg>