<svg xmlns="http://www.w3.org/2000/svg" xmlns:svg="http://www.w3.org/2000/svg" id="svg4" width="24" height="24" fill="none" version="1.1" viewBox="0 0 24 24"><path id="path2" fill="#000" d="m 22,5.7975002 c -0.735826,0.3266696 -1.526696,0.5466609 -2.356696,0.6458348 0.847566,-0.5075043 1.498348,-1.3116696 1.804174,-2.27 -0.792521,0.47 -1.670782,0.8116609 -2.605826,0.9958348 C 18.094174,4.3716654 17.026696,3.873335 15.846696,3.873335 c -2.649218,0 -4.595826,2.4716609 -3.997566,5.0374957 C 8.44,8.7399959 5.4166696,7.1066654 3.3924957,4.6241698 2.3175043,6.468335 2.835,8.8808307 4.6616696,10.102491 3.99,10.080839 3.3566696,9.8966654 2.8041652,9.5891872 2.7591652,11.48997 4.1216696,13.268318 6.095,13.664144 c -0.5774957,0.156695 -1.21,0.193391 -1.8533304,0.07 0.5216608,1.63 2.0366608,2.815826 3.8333304,2.849217 -1.725,1.352435 -3.8983304,1.956609 -6.075,1.7 1.8158348,1.164174 3.9733304,1.843304 6.29,1.843304 7.618348,0 11.922522,-6.434173 11.662522,-12.2049996 C 20.754174,7.3425002 21.45,6.6199959 22,5.7975002 Z" style="stroke-width:.869565"/></svg>