<svg xmlns="http://www.w3.org/2000/svg" xmlns:svg="http://www.w3.org/2000/svg" id="svg4" width="24" height="24" fill="none" version="1.1" viewBox="0 0 24 24"><g id="g2646" transform="matrix(0.077518,0,0,0.077518,7.4262605,-0.93242569)"><path id="path1370" d="M 63.289062,67.669922 -70,220 l 51.240826,18.63303 a 5.5943887,5.5943887 164.41826 0 0 6.268494,-1.74804 L 74.646484,128.71484 Z M 79.625,68 87.867188,112.30273 123.55469,68 Z" style="display:inline;fill:#000;fill-opacity:1;stroke:none;stroke-width:1px;stroke-linecap:butt;stroke-linejoin:miter;stroke-opacity:1"/><path id="path1372" d="m -13.969112,95.496139 -32.061776,4.007722 a 5.3651406,5.3651406 136.16848 0 0 -4.626684,4.441719 l -16.840475,101.04661 55.908203,-63.89649 1.451966,-42.098077 a 3.4102681,3.4102681 42.425168 0 0 -3.831234,-3.501484 z m 1.508174,70.894481 -43.824218,50.08399 38.642578,14.05273 3.101562,-3.85156 z" style="display:inline;fill:#000;fill-opacity:1;stroke:none;stroke-width:1px;stroke-linecap:butt;stroke-linejoin:miter;stroke-opacity:1"/><path style="display:inline;fill:#000;fill-opacity:1;stroke:none;stroke-width:8;stroke-linecap:butt;stroke-linejoin:miter;stroke-miterlimit:4;stroke-dasharray:none;stroke-opacity:1" id="path1368" d="m 117.86298,273.52569 64.27404,-12.05138 a 7.1931776,7.1931776 121.34055 0 0 5.5642,-9.13692 L 131.14939,63.831305 A 5.3761226,5.3761226 36.650378 0 0 126,60 H 70 l 38.53674,207.13496 a 7.9887719,7.9887719 34.42058 0 0 9.32624,6.39073 z"/></g></svg>