<svg xmlns="http://www.w3.org/2000/svg" xmlns:svg="http://www.w3.org/2000/svg" id="svg12" width="24" height="24" fill="none" version="1.1" viewBox="0 0 24 24"><g id="g919" transform="translate(5.0804166e-5,3.3579496)"><path id="path4" fill="#000" d="m 17.7505,9.30493 c 1.1453,0 2.0737,-0.92844 2.0737,-2.07373 0,-1.14529 -0.9284,-2.07373 -2.0737,-2.07373 -1.1453,0 -2.0737,0.92844 -2.0737,2.07373 0,1.14529 0.9284,2.07373 2.0737,2.07373 z"/><path id="path6" fill="#000" d="m 20.0625,4.90619 c 1.07,0 1.9374,-0.86744 1.9374,-1.93747 0,-1.07004 -0.8674,-1.93747 -1.9374,-1.93747 -1.0701,0 -1.9375,0.86743 -1.9375,1.93747 0,1.07003 0.8674,1.93747 1.9375,1.93747 z"/><path id="path8" fill="#000" d="m 15.0083,16.2841 c -0.741,0 -1.4521,-0.4301 -1.7714,-1.1497 L 8.15685,3.72676 C 7.72252,2.74738 8.16111,1.60193 9.14049,1.1676 10.1199,0.733263 11.2653,1.17185 11.6997,2.15123 l 5.08,11.40767 c 0.4343,0.9794 -0.0043,2.1248 -0.9837,2.5591 -0.2555,0.115 -0.5237,0.1661 -0.7877,0.1661 z"/><path id="path10" fill="#000" d="m 9.01258,16.2543 c -0.80906,0 -1.57978,-0.4684 -1.92895,-1.2519 L 2.18247,3.99075 C 1.70981,2.92621 2.18673,1.67857 3.25127,1.20591 4.31581,0.733251 5.56346,1.21017 6.03612,2.27471 L 10.9373,13.2863 c 0.4726,1.0646 -0.0043,2.3122 -1.06883,2.7849 -0.27678,0.1235 -0.5706,0.1831 -0.85589,0.1831 z"/></g></svg>